PathFileType	4	(X/Y/Z)	CPRIT_Patient3_R_AnkleIso_Processed.TRC
DataRate	CameraRate	NumFrames	NumMarkers	Units	OrigDataRate	OrigDataStartFrame	OrigNumFrames
150.227617602428	150.227617602428	4	39	m	150.227617602428	83	       661
Frame#	Time	R.Heel			R.Midfoot.Superior			R.Midfoot.Lateral			R.Toe			L.Heel			L.Midfoot.Superior			L.Midfoot.Lateral			L.Toe			R.Shank.Superior			R.Shank.Inferior			R.Shank.Lateral			R.Shank.Posterior			L.Shank.Superior			L.Shank.Inferior			L.Shank.Posterior			L.Shank.Lateral			R.Patella			L.Patella			R.Thigh.Superior			R.Thigh.Lateral			R.Thigh.Inferior			L.Thigh.Superior			L.Thigh.Inferior			L.Thigh.Lateral			L.Asis			R.Asis			Sacral			R.Shoulder			L.Shoulder			C7			J.Notch			Sternum			Thoracic			L.Elbow			L.Wrist			R.Elbow			R.Wrist			R.PSIS			L.PSIS			
		X1	Y1	Z1	X2	Y2	Z2	X3	Y3	Z3	X4	Y4	Z4	X5	Y5	Z5	X6	Y6	Z6	X7	Y7	Z7	X8	Y8	Z8	X9	Y9	Z9	X10	Y10	Z10	X11	Y11	Z11	X12	Y12	Z12	X13	Y13	Z13	X14	Y14	Z14	X15	Y15	Z15	X16	Y16	Z16	X17	Y17	Z17	X18	Y18	Z18	X19	Y19	Z19	X20	Y20	Z20	X21	Y21	Z21	X22	Y22	Z22	X23	Y23	Z23	X24	Y24	Z24	X25	Y25	Z25	X26	Y26	Z26	X27	Y27	Z27	X28	Y28	Z28	X29	Y29	Z29	X30	Y30	Z30	X31	Y31	Z31	X32	Y32	Z32	X33	Y33	Z33	X34	Y34	Z34	X35	Y35	Z35	X36	Y36	Z36	X37	Y37	Z37	X38	Y38	Z38	X39	Y39	Z39	

83	0.545838383838	0.980168152962	0.079739914288	0.170117162978	1.121707039283	0.177578268558	0.125981171375	1.074845900770	0.084964729872	0.183902338315	1.234520515443	0.169061065137	0.072020022041	0.643941611380	0.042729185183	-0.093789642738	0.806573187444	0.095632777123	-0.144503961435	0.709491477238	0.032709299496	-0.166002401887	0.920241271078	0.056610832417	-0.173615680458	0.991539994329	0.422032234118	0.131830084525	1.023948585327	0.305515166395	0.147655580137	0.941417630683	0.343835247875	0.199001213734	0.860860416272	0.371091718474	0.137318628447	0.771185116023	0.363454043791	-0.166201752331	0.758505309940	0.236009083765	-0.150679769579	0.632387934894	0.344849249637	-0.149272868960	0.696263164103	0.278447658190	-0.203501130131	0.968703309026	0.542308612510	0.096304677326	0.801168190458	0.465894215931	-0.165237553462	0.879587704555	0.831652737577	0.089279552552	0.831002915234	0.746896637181	0.144456253447	0.932998357113	0.687523850701	0.066885435573	0.859360655705	0.776603305217	-0.180525186163	0.842349635808	0.612067703229	-0.167397951999	0.760251790301	0.705534535922	-0.238866715863	0.852622575010	0.937339948989	-0.174121362669	0.818952306759	0.948421721788	0.067575949554	0.647096928627	0.983930803760	-0.068112610870	0.771501769091	1.440360608740	0.093884978816	0.810290631713	1.454835019293	-0.215776512262	0.746010240003	1.476349458900	-0.060775849381	0.850925881434	1.364957306707	-0.055776042681	0.893924444582	1.186908159066	-0.060548313070	0.643043958719	1.324697920424	-0.077621201683	0.850177057634	1.172212719795	-0.380676860067	1.008540630264	0.988385353292	-0.443566772103	0.768235823603	1.166926081483	0.278382721301	0.906836546305	0.991535711794	0.405207447554	0.643916772538	0.984572327331	-0.031224342180	0.650736213079	0.985014613892	-0.105646089500	
84	0.552494949495	0.979746201886	0.080697681674	0.170559647163	1.122304904711	0.176800904441	0.125758997848	1.074537984471	0.084817542900	0.183925238965	1.234703800518	0.166797391080	0.071140065379	0.643941824425	0.042729340923	-0.093788928175	0.806573884616	0.095632457109	-0.144505612787	0.709491581479	0.032710165382	-0.166001551263	0.920241519720	0.056610428781	-0.173616623977	0.991583586164	0.422174107006	0.131910441586	1.024113667710	0.305714005126	0.147782368636	0.941541395897	0.343970619481	0.199008657508	0.860918502574	0.371169444256	0.137372303725	0.771186740861	0.363456263719	-0.166200833050	0.758505603614	0.236008718833	-0.150679262867	0.632394072026	0.344850653164	-0.149256074542	0.696257956044	0.278448267723	-0.203494527959	0.968745389828	0.542413242759	0.096370951534	0.801170351552	0.465895416851	-0.165247639144	0.879597288683	0.831726888248	0.089297595323	0.831032195636	0.746999067514	0.144467529697	0.933030859906	0.687611078594	0.066905602880	0.859349334875	0.776601557932	-0.180552979233	0.842343486081	0.612065700676	-0.167421613354	0.760231183468	0.705530674105	-0.238875799512	0.852609503710	0.937338214468	-0.174149096571	0.818959192798	0.948473161479	0.067536477617	0.647087655927	0.983950596118	-0.068145155450	0.771595754583	1.440357533893	0.093821520092	0.810374678842	1.454856733346	-0.215841926180	0.746106059695	1.476373691131	-0.060845115817	0.851003787873	1.364956049977	-0.055842306350	0.893937013603	1.186910748275	-0.060623544278	0.643080099697	1.324751111450	-0.077679263279	0.850202450578	1.172242263226	-0.380766205667	1.008556803623	0.988382740083	-0.443595601907	0.768296307450	1.166945440812	0.278337218313	0.906842648668	0.991535405585	0.405196312958	0.643908123301	0.984599851718	-0.031257568569	0.650724195426	0.985025452047	-0.105678871922	
85	0.559151515152	0.979323627052	0.081657871246	0.170987861667	1.122884287276	0.176015243875	0.125548272972	1.074210451919	0.084673646097	0.183953393974	1.234860957756	0.164537621963	0.070308257302	0.643942153965	0.042729434534	-0.093788139852	0.806574478145	0.095632065529	-0.144507378477	0.709491606186	0.032710942749	-0.166000722735	0.920241848516	0.056610179755	-0.173617559261	0.991625323896	0.422311687207	0.131991100542	1.024273025773	0.305907737253	0.147907652475	0.941661535081	0.344100900039	0.199010706263	0.860973765568	0.371242671086	0.137421618417	0.771186627124	0.363458603054	-0.166201048457	0.758504683409	0.236008661581	-0.150679564075	0.632397987357	0.344851768740	-0.149240024587	0.696251233777	0.278448643527	-0.203488606332	0.968786631291	0.542515719895	0.096436370780	0.801170567169	0.465896346608	-0.165258146895	0.879608083078	0.831802103218	0.089305823318	0.831063283345	0.747101306689	0.144476880490	0.933063021852	0.687696582754	0.066922975323	0.859337898592	0.776599376048	-0.180581177814	0.842336329566	0.612063368938	-0.167445479701	0.760210521402	0.705526667873	-0.238885897406	0.852597029255	0.937336084749	-0.174177616703	0.818966367193	0.948522774092	0.067495963836	0.647079446273	0.983970075470	-0.068177855371	0.771686471728	1.440355036667	0.093758505359	0.810456105503	1.454877768092	-0.215907607229	0.746199197419	1.476396781292	-0.060914492339	0.851081089418	1.364954339709	-0.055908688622	0.893949745764	1.186914006240	-0.060698319623	0.643114629575	1.324802244918	-0.077737242394	0.850226955005	1.172271262655	-0.380855211881	1.008573305402	0.988380081760	-0.443624942741	0.768356905575	1.166964424018	0.278291906955	0.906848563680	0.991535206522	0.405185696803	0.643900474011	0.984626734721	-0.031290866893	0.650713573252	0.985036108592	-0.105711668778	
86	0.565808080808	0.978900411389	0.082619983466	0.171399546579	1.123445189579	0.175221733205	0.125350034634	1.073863518408	0.084532942985	0.183986581545	1.234994184652	0.162283706685	0.069528205390	0.643942602751	0.042729459188	-0.093787280767	0.806574973880	0.095631666716	-0.144509144015	0.709491555295	0.032711622354	-0.165999936560	0.920242240719	0.056610075097	-0.173618485974	0.991664896136	0.422444723204	0.132072295487	1.024426403058	0.306095858167	0.148031477436	0.941777093873	0.344225158531	0.199006894774	0.861025981512	0.371310444142	0.137465266238	0.771184750539	0.363461017908	-0.166202489614	0.758502542169	0.236008889600	-0.150680689403	0.632399682436	0.344852564122	-0.149224780857	0.696242960784	0.278448766770	-0.203483442915	0.968826205279	0.542615617511	0.096501048579	0.801168783038	0.465897005335	-0.165269176628	0.879619921052	0.831877746677	0.089304588814	0.831095760143	0.747202886538	0.144484275942	0.933094352600	0.687779721956	0.066937755420	0.859326235411	0.776596830392	-0.180609939954	0.842328111490	0.612060777232	-0.167469673932	0.760189639006	0.705522567545	-0.238897049746	0.852585006049	0.937333627529	-0.174207084022	0.818973916066	0.948570135497	0.067454329600	0.647072298754	0.983989181178	-0.068210403213	0.771773959353	1.440353071602	0.093696110351	0.810534639439	1.454898013998	-0.215973202084	0.746289554368	1.476418552258	-0.060983389544	0.851157812290	1.364952050961	-0.055975002487	0.893962800322	1.186917918650	-0.060772507696	0.643147576685	1.324851100151	-0.077794668155	0.850250333094	1.172299488796	-0.380943321734	1.008590031333	0.988377430747	-0.443654739667	0.768417418663	1.166983007669	0.278247284602	0.906854291604	0.991535116064	0.405175668785	0.643893902537	0.984652912949	-0.031323949014	0.650704349188	0.985046539423	-0.105744205268	
